<svg xmlns="http://www.w3.org/2000/svg" xmlns:xlink="http://www.w3.org/1999/xlink" width="500" zoomAndPan="magnify" viewBox="0 0 375 374.999991" height="500" preserveAspectRatio="xMidYMid meet" version="1.0"><defs><g/><clipPath id="id1"><path d="M 10 14 L 366 14 L 366 278.855469 L 10 278.855469 Z M 10 14 " clip-rule="nonzero"/></clipPath></defs><rect x="-37.5" width="450" fill="#ffffff" y="-37.499999" height="449.999989" fill-opacity="1"/><rect x="-37.5" width="450" fill="#545454" y="-37.499999" height="449.999989" fill-opacity="1"/><rect x="-37.5" width="450" fill="#ffffff" y="-37.499999" height="449.999989" fill-opacity="1"/><rect x="-37.5" width="450" fill="#545454" y="-37.499999" height="449.999989" fill-opacity="1"/><g clip-path="url(#id1)"><path fill="#f1f7fb" d="M 357.523438 115.738281 C 357.476562 114.988281 357.296875 114.253906 357.023438 113.566406 C 351.308594 83.179688 325.234375 64.359375 291.667969 64.359375 C 279.65625 64.359375 262.519531 60.640625 249.144531 84.402344 L 188.222656 84.402344 C 189.125 72.527344 192.160156 67.042969 195.609375 62.113281 C 200.683594 54.871094 206.445312 45.929688 206.445312 21.882812 C 206.445312 17.773438 203.140625 14.09375 199.035156 14.09375 C 194.933594 14.09375 191.625 17.226562 191.625 21.324219 C 191.625 40.679688 187.855469 47.4375 183.46875 53.695312 C 179.210938 59.773438 174.433594 60.652344 173.339844 84.402344 L 126.683594 84.402344 C 113.308594 60.652344 96.171875 64.359375 84.160156 64.359375 C 50.746094 64.359375 23.75 85.875 18.449219 118.375 C 15.921875 151.289062 10.054688 227.761719 10.054688 230.242188 C 10.054688 256.222656 30.828125 278.832031 54.519531 278.832031 C 75.707031 278.832031 89.496094 270.925781 95.519531 255.570312 C 95.605469 255.429688 95.6875 255.238281 95.746094 255.085938 L 111.054688 219.222656 C 117.265625 223.949219 125.757812 229.757812 136.039062 229.757812 C 154.308594 229.757812 171.277344 215.007812 177.789062 203.132812 L 198.125 203.132812 C 204.503906 215.007812 221.101562 227.628906 239.824219 227.628906 C 249.832031 227.628906 258.027344 224.972656 264.65625 221.050781 L 280.175781 255.5 C 280.234375 255.628906 280.308594 255.546875 280.367188 255.703125 C 286.390625 271.03125 300.179688 278.714844 321.355469 278.714844 C 345.441406 278.714844 365.824219 257.292969 365.824219 232.011719 C 365.773438 229.554688 360.011719 149.863281 357.523438 115.738281 Z M 98.984375 155.625 L 81.195312 155.625 L 81.195312 170.46875 C 81.195312 174.585938 79.371094 177.890625 75.269531 177.890625 C 71.164062 177.890625 69.339844 174.585938 69.339844 170.46875 L 69.339844 155.625 L 54.519531 155.625 C 50.414062 155.625 47.105469 153.808594 47.105469 149.6875 C 47.105469 145.578125 50.414062 143.75 54.519531 143.75 L 69.339844 143.75 L 69.339844 125.9375 C 69.339844 121.828125 71.164062 118.515625 75.269531 118.515625 C 79.371094 118.515625 81.195312 121.839844 81.195312 125.9375 L 81.195312 143.75 L 98.984375 143.75 C 103.085938 143.75 106.394531 145.578125 106.394531 149.6875 C 106.394531 153.808594 103.085938 155.625 98.984375 155.625 Z M 173.09375 155.625 L 158.269531 155.625 C 154.167969 155.625 150.859375 153.808594 150.859375 149.6875 C 150.859375 145.578125 154.167969 143.75 158.269531 143.75 L 173.09375 143.75 C 177.195312 143.75 180.503906 145.578125 180.503906 149.6875 C 180.503906 153.808594 177.195312 155.625 173.09375 155.625 Z M 217.558594 155.625 L 202.734375 155.625 C 198.632812 155.625 195.324219 153.808594 195.324219 149.6875 C 195.324219 145.578125 198.632812 143.75 202.734375 143.75 L 217.558594 143.75 C 221.660156 143.75 224.96875 145.578125 224.96875 149.6875 C 224.96875 153.808594 221.660156 155.625 217.558594 155.625 Z M 262.023438 185.308594 C 253.851562 185.308594 247.199219 178.660156 247.199219 170.46875 C 247.199219 162.296875 253.851562 155.625 262.023438 155.625 C 270.203125 155.625 276.84375 162.296875 276.84375 170.46875 C 276.84375 178.671875 270.203125 185.308594 262.023438 185.308594 Z M 262.023438 140.78125 C 253.851562 140.78125 247.199219 134.144531 247.199219 125.9375 C 247.199219 117.757812 253.851562 111.09375 262.023438 111.09375 C 270.203125 111.09375 276.84375 117.757812 276.84375 125.9375 C 276.84375 134.144531 270.203125 140.78125 262.023438 140.78125 Z M 306.488281 185.308594 C 298.316406 185.308594 291.667969 178.660156 291.667969 170.46875 C 291.667969 162.296875 298.316406 155.625 306.488281 155.625 C 314.667969 155.625 321.308594 162.296875 321.308594 170.46875 C 321.308594 178.671875 314.667969 185.308594 306.488281 185.308594 Z M 306.488281 140.78125 C 298.316406 140.78125 291.667969 134.144531 291.667969 125.9375 C 291.667969 117.757812 298.316406 111.09375 306.488281 111.09375 C 314.667969 111.09375 321.308594 117.757812 321.308594 125.9375 C 321.308594 134.144531 314.667969 140.78125 306.488281 140.78125 Z M 306.488281 140.78125 " fill-opacity="1" fill-rule="nonzero"/></g><g fill="#f1f7fb" fill-opacity="1"><g transform="translate(77.795306, 360.457858)"><g><path d="M 100.605469 -54.011719 C 100.605469 -55.882812 99.628906 -56.855469 97.757812 -56.855469 L 66.445312 -56.855469 C 64.648438 -56.855469 63.523438 -55.359375 63.523438 -53.859375 L 63.523438 -36.707031 C 63.523438 -34.90625 64.871094 -33.785156 66.445312 -33.785156 L 75.359375 -33.785156 L 75.359375 -28.089844 C 73.113281 -27.265625 67.71875 -26.144531 63.300781 -26.144531 C 46.820312 -26.144531 35.132812 -39.328125 35.132812 -55.734375 C 35.132812 -72.136719 46.820312 -85.546875 63.300781 -85.546875 C 69.964844 -85.546875 77.308594 -83.449219 82.25 -79.855469 C 82.925781 -79.40625 83.597656 -79.179688 84.273438 -79.179688 C 85.097656 -79.179688 85.996094 -79.703125 86.820312 -80.828125 L 98.957031 -98.355469 C 99.332031 -98.882812 99.480469 -99.480469 99.480469 -100.003906 C 99.480469 -101.429688 98.433594 -102.328125 97.308594 -103.152344 C 87.945312 -109.445312 75.808594 -112.890625 63.824219 -112.890625 C 32.136719 -112.890625 6.59375 -87.195312 6.59375 -55.507812 C 6.59375 -23.894531 32.136719 1.648438 63.824219 1.648438 C 75.660156 1.648438 89.21875 -2.097656 98.433594 -8.316406 C 99.855469 -9.140625 100.605469 -10.1875 100.605469 -11.609375 Z M 100.605469 -54.011719 "/></g></g></g><g fill="#f1f7fb" fill-opacity="1"><g transform="translate(188.207084, 360.457858)"><g><path d="M 62.699219 -3.296875 C 63.898438 -1.125 65.621094 0 67.792969 0 L 93.5625 0 C 96.035156 0 96.632812 -1.125 95.433594 -3.296875 L 75.285156 -40.976562 C 89.292969 -46.144531 97.90625 -60.453125 97.90625 -74.835938 C 97.90625 -93.113281 83.898438 -111.242188 63.300781 -111.242188 L 10.636719 -111.242188 C 8.464844 -111.242188 8.164062 -109.742188 9.140625 -107.945312 L 32.359375 -62.476562 L 15.65625 -62.476562 C 13.785156 -62.476562 12.359375 -61.203125 12.359375 -59.179688 L 12.136719 -3.222656 C 12.136719 -1.046875 13.410156 0 15.429688 0 L 37.679688 0 C 40 0 41.125 -1.046875 41.125 -3.222656 L 41.125 -38.878906 L 44.496094 -38.878906 Z M 69.367188 -74.984375 C 69.367188 -69.964844 66.96875 -66.144531 63 -64.046875 L 50.488281 -87.570312 L 56.257812 -87.570312 C 63.972656 -87.570312 69.367188 -81.800781 69.367188 -74.984375 Z M 69.367188 -74.984375 "/></g></g></g></svg>