<svg xmlns="http://www.w3.org/2000/svg" xmlns:xlink="http://www.w3.org/1999/xlink" width="500" zoomAndPan="magnify" viewBox="0 0 375 374.999991" height="500" preserveAspectRatio="xMidYMid meet" version="1.0"><defs><g/><clipPath id="id1"><path d="M 23.0625 23.0625 L 351.9375 23.0625 L 351.9375 351.9375 L 23.0625 351.9375 Z M 23.0625 23.0625 " clip-rule="nonzero"/></clipPath><clipPath id="id2"><path d="M 113.25 63.675781 L 137.25 63.675781 L 137.25 128.925781 L 113.25 128.925781 Z M 113.25 63.675781 " clip-rule="nonzero"/></clipPath><clipPath id="id3"><path d="M 113.25 246.074219 L 137.25 246.074219 L 137.25 311.324219 L 113.25 311.324219 Z M 113.25 246.074219 " clip-rule="nonzero"/></clipPath></defs><g clip-path="url(#id1)"><path fill="#ffc107" d="M 187.5 23.0625 C 96.429688 23.0625 23.0625 96.429688 23.0625 187.5 C 23.0625 278.570312 96.429688 351.9375 187.5 351.9375 C 277.730469 351.9375 351.9375 278.570312 351.9375 187.5 C 351.9375 96.429688 277.730469 23.0625 187.5 23.0625 Z M 187.5 326.636719 C 110.761719 326.636719 48.363281 264.238281 48.363281 187.5 C 48.363281 110.761719 110.761719 48.363281 187.5 48.363281 C 264.238281 48.363281 326.636719 110.761719 326.636719 187.5 C 326.636719 264.238281 264.238281 326.636719 187.5 326.636719 Z M 187.5 326.636719 " fill-opacity="1" fill-rule="nonzero"/></g><path fill="#ffc107" d="M 187.5 48.363281 C 110.761719 48.363281 48.363281 110.761719 48.363281 187.5 C 48.363281 264.238281 110.761719 326.636719 187.5 326.636719 C 264.238281 326.636719 326.636719 264.238281 326.636719 187.5 C 326.636719 110.761719 264.238281 48.363281 187.5 48.363281 Z M 187.5 48.363281 " fill-opacity="1" fill-rule="nonzero"/><g fill="#ff9e5e" fill-opacity="0.4"><g transform="translate(47.647551, 285.239541)"><g><path d="M 67.046875 1.96875 C 54.929688 1.96875 44.289062 -0.40625 35.125 -5.15625 C 25.957031 -9.90625 18.832031 -16.617188 13.75 -25.296875 C 8.675781 -33.972656 6.140625 -44.039062 6.140625 -55.5 L 6.140625 -116.671875 C 6.140625 -128.128906 8.675781 -138.15625 13.75 -146.75 C 18.832031 -155.34375 25.957031 -162.015625 35.125 -166.765625 C 44.289062 -171.515625 54.929688 -173.890625 67.046875 -173.890625 C 79.003906 -173.890625 89.566406 -171.554688 98.734375 -166.890625 C 107.898438 -162.222656 115.019531 -155.796875 120.09375 -147.609375 C 125.175781 -139.421875 127.71875 -130.171875 127.71875 -119.859375 L 127.71875 -115.6875 C 127.71875 -114.539062 127.390625 -113.640625 126.734375 -112.984375 C 126.078125 -112.328125 125.175781 -112 124.03125 -112 L 85.21875 -112 C 84.070312 -112 83.171875 -112.328125 82.515625 -112.984375 C 81.867188 -113.640625 81.546875 -114.539062 81.546875 -115.6875 L 81.546875 -119.359375 C 81.546875 -123.617188 80.234375 -127.179688 77.609375 -130.046875 C 74.992188 -132.910156 71.472656 -134.34375 67.046875 -134.34375 C 62.628906 -134.34375 59.066406 -132.785156 56.359375 -129.671875 C 53.660156 -126.566406 52.3125 -122.476562 52.3125 -117.40625 L 52.3125 -54.765625 C 52.3125 -49.691406 53.828125 -45.554688 56.859375 -42.359375 C 59.890625 -39.171875 63.613281 -37.578125 68.03125 -37.578125 C 72.125 -37.578125 75.476562 -38.882812 78.09375 -41.5 C 80.71875 -44.125 82.03125 -47.726562 82.03125 -52.3125 L 82.03125 -59.6875 C 82.03125 -60.664062 81.539062 -61.15625 80.5625 -61.15625 L 69.015625 -61.15625 C 67.867188 -61.15625 66.96875 -61.484375 66.3125 -62.140625 C 65.65625 -62.796875 65.328125 -63.695312 65.328125 -64.84375 L 65.328125 -93.828125 C 65.328125 -94.972656 65.65625 -95.867188 66.3125 -96.515625 C 66.96875 -97.171875 67.867188 -97.5 69.015625 -97.5 L 124.03125 -97.5 C 125.175781 -97.5 126.078125 -97.171875 126.734375 -96.515625 C 127.390625 -95.867188 127.71875 -94.972656 127.71875 -93.828125 L 127.71875 -54.28125 C 127.71875 -43.144531 125.175781 -33.316406 120.09375 -24.796875 C 115.019531 -16.285156 107.898438 -9.695312 98.734375 -5.03125 C 89.566406 -0.363281 79.003906 1.96875 67.046875 1.96875 Z M 67.046875 1.96875 "/></g></g></g><g fill="#f1f7fb" fill-opacity="1"><g transform="translate(58.502193, 274.384903)"><g><path d="M 67.046875 1.96875 C 54.929688 1.96875 44.289062 -0.40625 35.125 -5.15625 C 25.957031 -9.90625 18.832031 -16.617188 13.75 -25.296875 C 8.675781 -33.972656 6.140625 -44.039062 6.140625 -55.5 L 6.140625 -116.671875 C 6.140625 -128.128906 8.675781 -138.15625 13.75 -146.75 C 18.832031 -155.34375 25.957031 -162.015625 35.125 -166.765625 C 44.289062 -171.515625 54.929688 -173.890625 67.046875 -173.890625 C 79.003906 -173.890625 89.566406 -171.554688 98.734375 -166.890625 C 107.898438 -162.222656 115.019531 -155.796875 120.09375 -147.609375 C 125.175781 -139.421875 127.71875 -130.171875 127.71875 -119.859375 L 127.71875 -115.6875 C 127.71875 -114.539062 127.390625 -113.640625 126.734375 -112.984375 C 126.078125 -112.328125 125.175781 -112 124.03125 -112 L 85.21875 -112 C 84.070312 -112 83.171875 -112.328125 82.515625 -112.984375 C 81.867188 -113.640625 81.546875 -114.539062 81.546875 -115.6875 L 81.546875 -119.359375 C 81.546875 -123.617188 80.234375 -127.179688 77.609375 -130.046875 C 74.992188 -132.910156 71.472656 -134.34375 67.046875 -134.34375 C 62.628906 -134.34375 59.066406 -132.785156 56.359375 -129.671875 C 53.660156 -126.566406 52.3125 -122.476562 52.3125 -117.40625 L 52.3125 -54.765625 C 52.3125 -49.691406 53.828125 -45.554688 56.859375 -42.359375 C 59.890625 -39.171875 63.613281 -37.578125 68.03125 -37.578125 C 72.125 -37.578125 75.476562 -38.882812 78.09375 -41.5 C 80.71875 -44.125 82.03125 -47.726562 82.03125 -52.3125 L 82.03125 -59.6875 C 82.03125 -60.664062 81.539062 -61.15625 80.5625 -61.15625 L 69.015625 -61.15625 C 67.867188 -61.15625 66.96875 -61.484375 66.3125 -62.140625 C 65.65625 -62.796875 65.328125 -63.695312 65.328125 -64.84375 L 65.328125 -93.828125 C 65.328125 -94.972656 65.65625 -95.867188 66.3125 -96.515625 C 66.96875 -97.171875 67.867188 -97.5 69.015625 -97.5 L 124.03125 -97.5 C 125.175781 -97.5 126.078125 -97.171875 126.734375 -96.515625 C 127.390625 -95.867188 127.71875 -94.972656 127.71875 -93.828125 L 127.71875 -54.28125 C 127.71875 -43.144531 125.175781 -33.316406 120.09375 -24.796875 C 115.019531 -16.285156 107.898438 -9.695312 98.734375 -5.03125 C 89.566406 -0.363281 79.003906 1.96875 67.046875 1.96875 Z M 67.046875 1.96875 "/></g></g></g><g fill="#ff9e5e" fill-opacity="0.4"><g transform="translate(193.445483, 285.317337)"><g><path d="M 85.3125 0 C 83.226562 0 81.863281 -0.960938 81.21875 -2.890625 L 60.734375 -63.625 C 60.578125 -64.425781 60.015625 -64.828125 59.046875 -64.828125 L 54.703125 -64.828125 C 53.742188 -64.828125 53.265625 -64.347656 53.265625 -63.390625 L 53.265625 -3.609375 C 53.265625 -2.484375 52.941406 -1.597656 52.296875 -0.953125 C 51.660156 -0.316406 50.78125 0 49.65625 0 L 11.5625 0 C 10.4375 0 9.550781 -0.316406 8.90625 -0.953125 C 8.269531 -1.597656 7.953125 -2.484375 7.953125 -3.609375 L 7.953125 -165.09375 C 7.953125 -166.21875 8.269531 -167.101562 8.90625 -167.75 C 9.550781 -168.394531 10.4375 -168.71875 11.5625 -168.71875 L 75.203125 -168.71875 C 85.484375 -168.71875 94.554688 -166.46875 102.421875 -161.96875 C 110.296875 -157.46875 116.398438 -151.160156 120.734375 -143.046875 C 125.078125 -134.929688 127.25 -125.570312 127.25 -114.96875 C 127.25 -105.164062 125.203125 -96.523438 121.109375 -89.046875 C 117.015625 -81.578125 111.269531 -75.753906 103.875 -71.578125 C 103.226562 -71.097656 102.988281 -70.457031 103.15625 -69.65625 L 127.984375 -4.09375 C 128.140625 -3.613281 128.21875 -3.050781 128.21875 -2.40625 C 128.21875 -0.800781 127.175781 0 125.09375 0 Z M 54.703125 -129.90625 C 53.742188 -129.90625 53.265625 -129.425781 53.265625 -128.46875 L 53.265625 -100.75 C 53.265625 -99.78125 53.742188 -99.296875 54.703125 -99.296875 L 67.484375 -99.296875 C 71.816406 -99.296875 75.347656 -100.660156 78.078125 -103.390625 C 80.816406 -106.128906 82.1875 -109.828125 82.1875 -114.484375 C 82.1875 -119.304688 80.859375 -123.082031 78.203125 -125.8125 C 75.554688 -128.539062 71.984375 -129.90625 67.484375 -129.90625 Z M 54.703125 -129.90625 "/></g></g></g><g fill="#f1f7fb" fill-opacity="1"><g transform="translate(182.794123, 274.665974)"><g><path d="M 85.3125 0 C 83.226562 0 81.863281 -0.960938 81.21875 -2.890625 L 60.734375 -63.625 C 60.578125 -64.425781 60.015625 -64.828125 59.046875 -64.828125 L 54.703125 -64.828125 C 53.742188 -64.828125 53.265625 -64.347656 53.265625 -63.390625 L 53.265625 -3.609375 C 53.265625 -2.484375 52.941406 -1.597656 52.296875 -0.953125 C 51.660156 -0.316406 50.78125 0 49.65625 0 L 11.5625 0 C 10.4375 0 9.550781 -0.316406 8.90625 -0.953125 C 8.269531 -1.597656 7.953125 -2.484375 7.953125 -3.609375 L 7.953125 -165.09375 C 7.953125 -166.21875 8.269531 -167.101562 8.90625 -167.75 C 9.550781 -168.394531 10.4375 -168.71875 11.5625 -168.71875 L 75.203125 -168.71875 C 85.484375 -168.71875 94.554688 -166.46875 102.421875 -161.96875 C 110.296875 -157.46875 116.398438 -151.160156 120.734375 -143.046875 C 125.078125 -134.929688 127.25 -125.570312 127.25 -114.96875 C 127.25 -105.164062 125.203125 -96.523438 121.109375 -89.046875 C 117.015625 -81.578125 111.269531 -75.753906 103.875 -71.578125 C 103.226562 -71.097656 102.988281 -70.457031 103.15625 -69.65625 L 127.984375 -4.09375 C 128.140625 -3.613281 128.21875 -3.050781 128.21875 -2.40625 C 128.21875 -0.800781 127.175781 0 125.09375 0 Z M 54.703125 -129.90625 C 53.742188 -129.90625 53.265625 -129.425781 53.265625 -128.46875 L 53.265625 -100.75 C 53.265625 -99.78125 53.742188 -99.296875 54.703125 -99.296875 L 67.484375 -99.296875 C 71.816406 -99.296875 75.347656 -100.660156 78.078125 -103.390625 C 80.816406 -106.128906 82.1875 -109.828125 82.1875 -114.484375 C 82.1875 -119.304688 80.859375 -123.082031 78.203125 -125.8125 C 75.554688 -128.539062 71.984375 -129.90625 67.484375 -129.90625 Z M 54.703125 -129.90625 "/></g></g></g><g clip-path="url(#id2)"><path fill="#f1f7fb" d="M 113.25 63.675781 L 137.25 63.675781 L 137.25 128.925781 L 113.25 128.925781 L 113.25 63.675781 " fill-opacity="1" fill-rule="nonzero"/></g><g clip-path="url(#id3)"><path fill="#f1f7fb" d="M 113.25 246.074219 L 137.25 246.074219 L 137.25 311.324219 L 113.25 311.324219 L 113.25 246.074219 " fill-opacity="1" fill-rule="nonzero"/></g></svg>