<?xml version="1.0" encoding="UTF-8" standalone="no"?>
<!-- Created with Inkscape (http://www.inkscape.org/) -->

<svg
   width="200mm"
   height="200mm"
   viewBox="0 0 200 200"
   version="1.1"
   id="svg5"
   xml:space="preserve"
   inkscape:version="1.2 (dc2aeda, 2022-05-15)"
   sodipodi:docname="RoomGame.svg"
   xmlns:inkscape="http://www.inkscape.org/namespaces/inkscape"
   xmlns:sodipodi="http://sodipodi.sourceforge.net/DTD/sodipodi-0.dtd"
   xmlns="http://www.w3.org/2000/svg"
   xmlns:svg="http://www.w3.org/2000/svg"><sodipodi:namedview
     id="namedview7"
     pagecolor="#ffffff"
     bordercolor="#000000"
     borderopacity="0.25"
     inkscape:showpageshadow="2"
     inkscape:pageopacity="0.0"
     inkscape:pagecheckerboard="0"
     inkscape:deskcolor="#d1d1d1"
     inkscape:document-units="mm"
     showgrid="false"
     inkscape:zoom="0.42"
     inkscape:cx="580.95238"
     inkscape:cy="379.7619"
     inkscape:window-width="1440"
     inkscape:window-height="783"
     inkscape:window-x="0"
     inkscape:window-y="25"
     inkscape:window-maximized="1"
     inkscape:current-layer="layer1" /><defs
     id="defs2"><g
       id="g221" /><clipPath
       id="id1"><path
         d="M 10 14 L 366 14 L 366 278.855469 L 10 278.855469 Z M 10 14 "
         clip-rule="nonzero"
         id="path223" /></clipPath></defs><g
     inkscape:label="Capa 1"
     inkscape:groupmode="layer"
     id="layer1"><circle
       style="fill:#ffc107;stroke-width:0.314192;fill-opacity:1"
       id="path61"
       cx="100"
       cy="100"
       r="95" /><g
       fill="#f1f7fb"
       fill-opacity="1"
       id="g254"
       transform="matrix(1.1198687,0,0,0.89893951,-207.90619,-205.0525)"
       style="fill:#f9f9f9"><g
         transform="translate(188.20708,360.45786)"
         id="g252"
         style="fill:#f9f9f9"><g
           id="g250"
           style="fill:#f9f9f9"><path
             d="M 62.699219,-3.296875 C 63.898438,-1.125 65.621094,0 67.792969,0 H 93.5625 c 2.472656,0 3.070312,-1.125 1.871094,-3.296875 L 75.285156,-40.976562 c 14.007813,-5.167969 22.621094,-19.476563 22.621094,-33.859376 0,-18.277343 -14.007812,-36.406252 -34.605469,-36.406252 H 10.636719 c -2.171875,0 -2.472657,1.5 -1.496094,3.29688 l 23.21875,45.468748 H 15.65625 c -1.871094,0 -3.296875,1.273437 -3.296875,3.296874 L 12.136719,-3.222656 C 12.136719,-1.046875 13.410156,0 15.429688,0 h 22.25 C 40,0 41.125,-1.046875 41.125,-3.222656 v -35.65625 h 3.371094 z m 6.667969,-71.6875 c 0,5.019531 -2.398438,8.839844 -6.367188,10.9375 L 50.488281,-87.570312 h 5.769531 c 7.714844,0 13.109376,5.769531 13.109376,12.585937 z m 0,0"
             id="path248"
             style="fill:#f9f9f9" /></g></g></g><g
       fill="#f1f7fb"
       fill-opacity="1"
       id="g246"
       transform="matrix(1.0636972,0,0,0.87306455,-7.6867823,-133.8734)"
       style="fill:#f9f9f9"><g
         transform="translate(77.795306,360.45786)"
         id="g244"
         style="fill:#f9f9f9"><g
           id="g242"
           style="fill:#f9f9f9"><path
             d="m 100.60547,-54.011719 c 0,-1.871093 -0.976564,-2.84375 -2.847658,-2.84375 h -31.3125 c -1.796874,0 -2.921874,1.496094 -2.921874,2.996094 v 17.152344 c 0,1.800781 1.347656,2.921875 2.921874,2.921875 h 8.914063 v 5.695312 c -2.246094,0.824219 -7.640625,1.945313 -12.058594,1.945313 -16.480469,0 -28.167969,-13.183594 -28.167969,-29.589844 0,-16.402344 11.6875,-29.8125 28.167969,-29.8125 6.664063,0 14.007813,2.097656 18.949219,5.691406 0.675781,0.449219 1.347656,0.675781 2.023438,0.675781 0.824218,0 1.722656,-0.523437 2.546874,-1.648437 l 12.136719,-17.527344 c 0.375,-0.527343 0.523438,-1.125 0.523438,-1.648441 0,-1.42578 -1.046875,-2.32422 -2.171875,-3.14843 -9.363282,-6.29297 -21.5,-9.73829 -33.484375,-9.73829 -31.6875,0 -57.230469,25.695318 -57.230469,57.382818 0,31.613281 25.542969,57.15625 57.230469,57.15625 11.835937,0 25.394531,-3.746094 34.609375,-9.964844 1.421875,-0.824219 2.171876,-1.871094 2.171876,-3.292969 z m 0,0"
             id="path240"
             style="fill:#f9f9f9" /></g></g></g></g></svg>
